<?xml version="1.0" standalone="no"?>
<!DOCTYPE svg PUBLIC "-//W3C//DTD SVG 20010904//EN"
 "http://www.w3.org/TR/2001/REC-SVG-20010904/DTD/svg10.dtd">
<svg version="1.0" xmlns="http://www.w3.org/2000/svg"
 width="1043.000000pt" height="1043.000000pt" viewBox="0 0 1043.000000 1043.000000"
 preserveAspectRatio="xMidYMid meet">
<metadata>
Created by potrace 1.14, written by Peter Selinger 2001-2017
</metadata>
<g transform="translate(0.000000,1043.000000) scale(0.100000,-0.100000)"
fill="#000000" stroke="none">
<path d="M1722 9098 c-16 -4 -37 -17 -48 -29 -18 -20 -19 -43 -19 -442 0 -232
1 -432 3 -445 7 -39 52 -62 126 -63 53 -1 66 -5 67 -18 1 -9 2 -619 3 -1356
l1 -1340 -55 -1 c-70 -1 -115 -24 -139 -72 -17 -34 -18 -61 -17 -302 1 -228 4
-269 18 -296 22 -40 77 -66 139 -67 28 0 50 -5 50 -11 7 -57 2 -2359 -5 -2363
-5 -3 -191 -6 -415 -6 -223 0 -419 -4 -435 -8 -50 -15 -96 -52 -118 -99 -21
-43 -22 -58 -23 -320 -1 -151 3 -292 7 -314 12 -52 51 -101 102 -125 l42 -21
4205 0 c3342 1 4211 3 4239 13 47 17 78 44 103 92 20 38 21 54 21 340 0 333 0
333 -68 393 -20 17 -53 35 -73 41 -21 5 -210 9 -423 10 -212 0 -396 0 -410 0
l-25 1 0 1188 0 1187 21 1 c62 3 115 39 135 91 5 13 9 140 9 281 0 225 -2 261
-18 292 -18 36 -61 67 -102 72 -14 2 -30 6 -35 10 -7 4 -10 464 -10 1355 l0
1348 78 2 c42 1 86 7 97 13 45 24 46 40 46 493 l-1 429 -28 24 c-16 13 -38 25
-50 25 -98 6 -6973 2 -6995 -3z"/>
</g>
</svg>
